# xmcd CD database file
#
# Track frame offsets:
#	150
#	15315
#	33829
#
# Disc length: 691 seconds
#
# Revision: 1
# Processed by: cddbd v1.4b41PL3 Copyright (c) Steve Scherf et al.
# Submitted via: CDex 1.40Beta4
#
DISCID=1202b103
DTITLE=Spooky Jo - Make Me Feel Good
DYEAR=1900
DGENRE=Blues
TTITLE0=Chillin Peacefully
TTITLE1=All About the Joint
TTITLE2=Make Me Feel Good
EXTD=ID3G:   0
EXTT0=
EXTT1=
EXTT2=
PLAYORDER=
